<?xml version="1.0" encoding="utf-8"?>
<!-- Generator: Adobe Illustrator 23.0.2, SVG Export Plug-In . SVG Version: 6.00 Build 0)  -->
<svg version="1.1" id="Ebene_1" xmlns="http://www.w3.org/2000/svg" xmlns:xlink="http://www.w3.org/1999/xlink" x="0px" y="0px"
	 viewBox="0 0 124.2 121.5" style="enable-background:new 0 0 124.2 121.5;" xml:space="preserve">
<style type="text/css">
	.st0{fill:none;stroke:#000000;stroke-width:2.1224;}
	.st1{fill:none;stroke:#222221;stroke-width:2.1224;}
	.st2{opacity:0.75;fill:#E81D3E;}
</style>
<path class="st0" d="M58.8,107.4c27.8,0,50.4-22.6,50.4-50.4S86.6,6.7,58.8,6.7S8.5,29.3,8.5,57.1C8.5,85,31.1,107.4,58.8,107.4z"/>
<path class="st1" d="M65,114.2c27.8,0,50.4-22.6,50.4-50.4S91.3,13.5,63.5,13.5S14.7,36.1,14.7,63.9C14.6,91.6,37.1,114.2,65,114.2z
	"/>
<path class="st2" d="M15.7,63.2c0,20.9,14.7,38.1,33.1,38.1s33.1-17.3,33.1-38.1S67.1,24.9,48.7,24.9S15.7,42.2,15.7,63.2
	 M10.5,63.2c0-24.2,17.3-43.3,38.1-43.3S86.8,39,86.8,63.2s-17.3,43.3-38.1,43.3C27.9,106.4,10.5,87.4,10.5,63.2"/>
</svg>
